<?xml version="1.0" encoding="UTF-8"?><svg id="Layer_1" xmlns="http://www.w3.org/2000/svg" viewBox="0 0 610.29999 483"><defs><style>.cls-1{fill:#fff;}.cls-2{fill:#009fe3;}.cls-3{fill:#f499be;}.cls-4{fill:#00703c;}.cls-5{fill:#323232;}.cls-5,.cls-6{stroke:#0b0c0c;stroke-miterlimit:10;stroke-width:5px;}.cls-7{fill:#fd0;}.cls-8{fill:#b1b4b6;}.cls-9,.cls-6{fill:#0b0c0c;}.cls-10{fill:#28a197;}.cls-11{fill:#d53880;}.cls-12{fill:#002d18;}</style></defs><rect class="cls-9" x="124.82581" y="233.9624" width="413.33203" height="166.84033"/><path class="cls-9" d="m537.1582,234.9624v164.84H125.82568v-164.84h411.33252m2-2H123.82568v168.84h415.33252v-168.84h0Z"/><path class="cls-2" d="m83.24528,331.81474c-2.24591.1123-3.93034-1.68443-3.93034-3.93034,0-2.13361,1.79673-3.93034,3.93034-3.93034s3.93034,1.79673,3.93034,3.93034-1.79673,3.93034-3.93034,3.93034q0,.1123,0,0Z"/><path class="cls-2" d="m98.96663,331.81474c-2.24591.1123-3.93034-1.68443-3.93034-3.93034,0-2.13361,1.79673-3.93034,3.93034-3.93034s3.93034,1.79673,3.93034,3.93034-1.79673,3.93034-3.93034,3.93034q0,.1123,0,0Z"/><path class="cls-2" d="m114.68799,331.81474c-2.24591.1123-3.93034-1.68443-3.93034-3.93034,0-2.13361,1.79673-3.93034,3.93034-3.93034s3.93034,1.79673,3.93034,3.93034-1.79673,3.93034-3.93034,3.93034q0,.1123,0,0Z"/><path class="cls-2" d="m130.40934,331.81474c-2.24591.1123-3.93034-1.68443-3.93034-3.93034,0-2.13361,1.79673-3.93034,3.93034-3.93034s3.93034,1.79673,3.93034,3.93034-1.79673,3.93034-3.93034,3.93034q0,.1123,0,0Z"/><path class="cls-2" d="m146.13069,331.81474c-2.24591.1123-3.93034-1.68443-3.93034-3.93034,0-2.13361,1.79673-3.93034,3.93034-3.93034s3.93034,1.79673,3.93034,3.93034-1.79673,3.93034-3.93034,3.93034q0,.1123,0,0Z"/><path class="cls-2" d="m161.85205,331.81474c-2.24591.1123-3.93034-1.68443-3.93034-3.93034,0-2.13361,1.79673-3.93034,3.93034-3.93034s3.93034,1.79673,3.93034,3.93034-1.79673,3.93034-3.93034,3.93034q0,.1123,0,0Z"/><path class="cls-2" d="m177.5734,331.81474c-2.24591.1123-3.93034-1.68443-3.93034-3.93034,0-2.13361,1.79673-3.93034,3.93034-3.93034s3.93034,1.79673,3.93034,3.93034-1.79673,3.93034-3.93034,3.93034q0,.1123,0,0Z"/><path class="cls-2" d="m193.29475,331.81474c-2.24591.1123-3.93034-1.68443-3.93034-3.93034,0-2.13361,1.79673-3.93034,3.93034-3.93034s3.93034,1.79673,3.93034,3.93034-1.79673,3.93034-3.93034,3.93034q0,.1123,0,0Z"/><path class="cls-2" d="m209.01611,331.81474c-2.24591.1123-3.93034-1.68443-3.93034-3.93034,0-2.13361,1.79673-3.93034,3.93034-3.93034s3.93034,1.79673,3.93034,3.93034-1.79672,3.93034-3.93034,3.93034q0,.1123,0,0Z"/><path class="cls-2" d="m224.73746,331.81474c-2.24591.1123-3.93034-1.68443-3.93034-3.93034,0-2.13361,1.79672-3.93034,3.93034-3.93034s3.93034,1.79673,3.93034,3.93034-1.79672,3.93034-3.93034,3.93034q0,.1123,0,0Z"/><path class="cls-2" d="m240.45881,331.81474c-2.24591.1123-3.93034-1.68443-3.93034-3.93034,0-2.13361,1.79672-3.93034,3.93034-3.93034s3.93034,1.79673,3.93034,3.93034-1.79672,3.93034-3.93034,3.93034q0,.1123,0,0Z"/><path class="cls-2" d="m256.18016,331.81474c-2.24591.1123-3.93034-1.68443-3.93034-3.93034,0-2.13361,1.79672-3.93034,3.93034-3.93034s3.93034,1.79673,3.93034,3.93034-1.79672,3.93034-3.93034,3.93034q0,.1123,0,0Z"/><path class="cls-2" d="m271.90152,331.81474c-2.24591.1123-3.93034-1.68443-3.93034-3.93034,0-2.13361,1.79672-3.93034,3.93034-3.93034s3.93034,1.79673,3.93034,3.93034-1.79672,3.93034-3.93034,3.93034q0,.1123,0,0Z"/><path class="cls-2" d="m287.62287,331.81474c-2.24591.1123-3.93034-1.68443-3.93034-3.93034,0-2.13361,1.79672-3.93034,3.93034-3.93034s3.93034,1.79673,3.93034,3.93034-1.79672,3.93034-3.93034,3.93034q0,.1123,0,0Z"/><path class="cls-2" d="m303.34422,331.81474c-2.24591.1123-3.93034-1.68443-3.93034-3.93034,0-2.13361,1.79672-3.93034,3.93034-3.93034s3.93034,1.79673,3.93034,3.93034-1.79672,3.93034-3.93034,3.93034q0,.1123,0,0Z"/><path class="cls-2" d="m319.06558,331.81474c-2.24591.1123-3.93034-1.68443-3.93034-3.93034,0-2.13361,1.79672-3.93034,3.93034-3.93034s3.93034,1.79673,3.93034,3.93034-1.79673,3.93034-3.93034,3.93034q0,.1123,0,0Z"/><path class="cls-2" d="m334.78693,331.81474c-2.24591.1123-3.93034-1.68443-3.93034-3.93034,0-2.13361,1.79673-3.93034,3.93034-3.93034s3.93034,1.79673,3.93034,3.93034-1.79673,3.93034-3.93034,3.93034q0,.1123,0,0Z"/><path class="cls-2" d="m350.50828,331.81474c-2.24591.1123-3.93034-1.68443-3.93034-3.93034,0-2.13361,1.79673-3.93034,3.93034-3.93034s3.93034,1.79673,3.93034,3.93034-1.79673,3.93034-3.93034,3.93034q0,.1123,0,0Z"/><circle class="cls-2" cx="65.8395" cy="140.23885" r="3.93034"/><circle class="cls-2" cx="65.8395" cy="155.9602" r="3.93034"/><circle class="cls-2" cx="65.8395" cy="171.68156" r="3.93034"/><circle class="cls-2" cx="65.8395" cy="187.40291" r="3.93034"/><circle class="cls-2" cx="65.8395" cy="203.12426" r="3.93034"/><circle class="cls-2" cx="65.8395" cy="218.84562" r="3.93034"/><circle class="cls-2" cx="65.8395" cy="234.56697" r="3.93034"/><circle class="cls-2" cx="65.8395" cy="250.28832" r="3.93034"/><circle class="cls-2" cx="65.8395" cy="266.00967" r="3.93034"/><circle class="cls-2" cx="65.8395" cy="281.73103" r="3.93034"/><circle class="cls-2" cx="65.8395" cy="297.45238" r="3.93034"/><circle class="cls-2" cx="65.8395" cy="313.17373" r="3.93034"/><circle class="cls-2" cx="65.8395" cy="328.89509" r="3.93034"/><path class="cls-6" d="m6.53304,13.42109h553.96577v114.3167H6.53304V13.42109Z"/><path class="cls-5" d="m6.53304,49.771h553.96577v114.3167H6.53304V49.771Z"/><rect class="cls-1" x="124.82581" y="261.5918" width="413.33203" height="166.83984"/><path class="cls-9" d="m537.1582,262.59189v164.84H125.82568v-164.84h411.33252m2-2H123.82568v168.84h415.33252v-168.84h0Z"/><path class="cls-1" d="m29.31506,79.37012l7.64648,4.2373c.38379.21533.63867.40723.76562.57568.12598.16895.18945.38428.18945.64502,0,.33008-.11914.61621-.35645.85791-.23828.2417-.51465.36279-.8291.36279-.20703,0-.51855-.11523-.93262-.3457l-11.38867-6.33301,11.38867-6.33301c.41406-.22266.72168-.33398.9209-.33398.32227,0,.60254.11914.84082.35693.2373.23828.35645.52197.35645.85205,0,.26123-.06348.47607-.18945.64502-.12695.16895-.38184.36084-.76562.57568l-7.64648,4.2373Z"/><path class="cls-11" d="m48.53284,76.3418v-.70215h2.76367c.56836,0,.97363.10938,1.21484.32812.24219.21875.36328.50488.36328.85742,0,.3457-.12109.62793-.36328.84668-.24121.21875-.64648.32812-1.21484.32812h-.40234v8.58984c0,.8291-.1748,1.55273-.52441,2.17041-.34961.61816-.88477,1.14941-1.60645,1.59473s-1.53516.66797-2.44043.66797h-2.67188c-.56836,0-.97266-.10938-1.21484-.32812s-.3623-.50098-.3623-.84619c0-.35352.12012-.63916.3623-.85791s.64648-.32812,1.21484-.32812h2.60254c.72168,0,1.28223-.1958,1.68066-.5874.39941-.3916.59863-.88672.59863-1.48535v-1.15137c-.52148.33789-1.05273.59131-1.59473.75977-.54102.16895-1.0957.25342-1.66309.25342-1.60449,0-2.94824-.53564-4.03027-1.60645-1.08301-1.0708-1.62402-2.39307-1.62402-3.9668,0-1.58105.54102-2.90723,1.62402-3.97803,1.08203-1.0708,2.42578-1.60645,4.03027-1.60645.59863,0,1.16797.08643,1.70996.25928.54102.17236,1.05664.43555,1.54785.78857Zm-.01074,4.52539c0-.86768-.32129-1.61963-.96191-2.25684s-1.41016-.95605-2.30859-.95605-1.66797.31885-2.30859.95605c-.6416.63721-.96191,1.38916-.96191,2.25684,0,.875.32031,1.62939.96191,2.2627.64062.6333,1.41016.94971,2.30859.94971s1.66797-.31641,2.30859-.94971.96191-1.3877.96191-2.2627Z"/><path class="cls-11" d="m60.1051,83.22754l2.54492-5.22754c-.62988,0-1.03223-.05371-1.20898-.16113-.38379-.23779-.57617-.57959-.57617-1.0249,0-.3457.12109-.62744.36328-.84619.24121-.21875.64648-.32812,1.21484-.32812h3.23535c.56836,0,.97266.10938,1.21484.32812s.3623.50488.3623.85742c0,.3457-.12012.62793-.3623.84668s-.64648.32812-1.21484.32812h-.3916l-3.94922,8.09473h-2.46387l-3.9502-8.09473h-.33398c-.56738,0-.97266-.10938-1.21484-.32812-.24121-.21875-.3623-.50488-.3623-.85791,0-.3457.12109-.62744.3623-.84619.24219-.21875.64746-.32812,1.21484-.32812h3.16699c.56055,0,.96094.10938,1.20312.32812s.3623.50488.3623.85742c0,.43799-.18359.77148-.55176,1.00195-.18457.11523-.5957.17285-1.23242.17285l2.56738,5.22754Z"/><path class="cls-11" d="m79.18518,80.47559h-9.85645v-2.15332h9.85645v2.15332Z"/><path class="cls-11" d="m85.41467,71.16016v5.29688c.5752-.37598,1.16016-.6582,1.75586-.84619.59473-.18799,1.19531-.28223,1.80176-.28223,1.63477,0,3.02051.56396,4.15723,1.69238,1.13574,1.12842,1.7041,2.49121,1.7041,4.08789,0,1.52783-.54199,2.80371-1.62402,3.82861s-2.50977,1.53711-4.2832,1.53711c-.62988,0-1.23633-.08057-1.81934-.2417-.58398-.16113-1.14746-.39893-1.69238-.71387v.57568h-2.76367c-.56836,0-.97363-.10938-1.21484-.32812-.24219-.21875-.36328-.50488-.36328-.85791,0-.34521.12305-.62744.36914-.84619.24512-.21875.64844-.32812,1.20898-.32812h.40234v-10.21387h-.40234c-.56836,0-.97363-.10938-1.21484-.32812-.24219-.21875-.36328-.50439-.36328-.85791,0-.34521.12109-.62744.36328-.84619.24121-.21875.64648-.32812,1.21484-.32812h2.76367Zm7.05762,10.01758c0-.97461-.34082-1.7998-1.02441-2.47559-.68359-.67529-1.51953-1.01318-2.50977-1.01318-.9834,0-1.81543.33789-2.49902,1.01318-.68359.67578-1.02441,1.48975-1.02441,2.44141,0,.86719.30664,1.57959.9209,2.13574.61426.55664,1.48145.83496,2.60254.83496,1.12012,0,1.98926-.27832,2.60742-.83496.61816-.55615.92676-1.25684.92676-2.10156Z"/><path class="cls-11" d="m107.55725,75.63965v8.09473c.49805,0,.86719.11133,1.10547.33398.2373.22266.35645.50635.35645.85205,0,.34521-.12109.62744-.3623.84619-.24219.21875-.64746.32812-1.21484.32812h-2.24609v-.54102c-.6748.30713-1.32031.53711-1.93359.69092-.61426.15332-1.19824.22998-1.75098.22998-.77539,0-1.44727-.16309-2.01465-.48926-.56836-.32617-1.01758-.77734-1.34766-1.35303-.2373-.41455-.35645-.93262-.35645-1.5542v-5.07812h-.40332c-.56836,0-.97266-.10938-1.21484-.32812-.24121-.21875-.3623-.50488-.3623-.85791,0-.3457.12109-.62744.3623-.84619.24219-.21875.64648-.32812,1.21484-.32812h2.76367v7.02393c0,.49902.12109.86523.3623,1.09961.24219.23389.6123.35107,1.11133.35107.47559,0,.98828-.09375,1.53711-.28223.54883-.18799,1.22656-.52783,2.03223-1.01904v-4.81299h-.85156c-.56836,0-.97266-.10938-1.21484-.32812s-.3623-.50488-.3623-.85791c0-.3457.12012-.62744.3623-.84619s.64648-.32812,1.21484-.32812h3.21289Z"/><path class="cls-11" d="m116.11194,78v4.73242c0,.50684.10352.84082.31055,1.00195.32324.25293.89844.37988,1.72754.37988,1.20508,0,2.31836-.25732,3.33984-.77148.39062-.19971.69824-.29932.9209-.29932.30664,0,.57324.11523.7998.34521.22656.23047.33984.51074.33984.84082,0,.30713-.12305.57178-.36816.79443-.37598.36084-1.11914.69287-2.22852.99609s-2.04395.45459-2.80371.45459c-1.46582,0-2.56543-.31641-3.29883-.94971s-1.09961-1.41064-1.09961-2.33203v-5.19287h-.85254c-.56738,0-.97266-.10938-1.21484-.32812-.24121-.21875-.3623-.50488-.3623-.85791,0-.3457.12109-.62744.3623-.84619.24219-.21875.64746-.32812,1.21484-.32812h.85254v-2.13037c0-.56787.10938-.97314.32812-1.21484s.50488-.36279.85742-.36279c.3457,0,.62793.12109.84668.36279s.32812.64697.32812,1.21484v2.13037h4.36426c.56836,0,.97266.10938,1.21484.32812.24121.21875.3623.50488.3623.85742,0,.3457-.12109.62793-.3623.84668-.24219.21875-.64648.32812-1.21484.32812h-4.36426Z"/><path class="cls-11" d="m130.26331,78v4.73242c0,.50684.10352.84082.31055,1.00195.32324.25293.89844.37988,1.72754.37988,1.20508,0,2.31836-.25732,3.33984-.77148.39062-.19971.69824-.29932.9209-.29932.30664,0,.57324.11523.7998.34521.22656.23047.33984.51074.33984.84082,0,.30713-.12305.57178-.36816.79443-.37598.36084-1.11914.69287-2.22852.99609s-2.04395.45459-2.80371.45459c-1.46582,0-2.56543-.31641-3.29883-.94971s-1.09961-1.41064-1.09961-2.33203v-5.19287h-.85254c-.56738,0-.97266-.10938-1.21484-.32812-.24121-.21875-.3623-.50488-.3623-.85791,0-.3457.12109-.62744.3623-.84619.24219-.21875.64746-.32812,1.21484-.32812h.85254v-2.13037c0-.56787.10938-.97314.32812-1.21484s.50488-.36279.85742-.36279c.3457,0,.62793.12109.84668.36279s.32812.64697.32812,1.21484v2.13037h4.36426c.56836,0,.97266.10938,1.21484.32812.24121.21875.3623.50488.3623.85742,0,.3457-.12109.62793-.3623.84668-.24219.21875-.64648.32812-1.21484.32812h-4.36426Z"/><path class="cls-11" d="m151.12756,81.06299c0,.90576-.25098,1.78271-.75391,2.63086s-1.25098,1.52393-2.24512,2.02686c-.99414.50244-2.03223.75391-3.11523.75391-1.07422,0-2.10352-.24756-3.08594-.74268s-1.73047-1.16846-2.24512-2.02051c-.51465-.85254-.77148-1.74268-.77148-2.67188,0-.94385.26074-1.87109.7832-2.78076.52148-.90967,1.27246-1.625,2.25098-2.14746.97852-.52197,2.00195-.78271,3.06836-.78271,1.0752,0,2.10938.2666,3.10352.80029s1.74414,1.25098,2.25098,2.15332c.50684.90186.75977,1.82861.75977,2.78076Zm-2.36035.01123c0-.75977-.27246-1.4585-.81738-2.0957-.74512-.85938-1.72363-1.28955-2.93652-1.28955-1.06641,0-1.95703.3418-2.6709,1.0249s-1.07129,1.47363-1.07129,2.37207c0,.73682.36133,1.42578,1.08301,2.06689.7207.64111,1.60742.96143,2.65918.96143,1.05957,0,1.9502-.32031,2.67188-.96143s1.08203-1.33398,1.08203-2.07861Z"/><path class="cls-11" d="m156.75842,75.63965v.79443c.42969-.36865.9043-.64502,1.42188-.8291.51855-.18457,1.08008-.27637,1.6875-.27637,1.39648,0,2.50195.43359,3.31543,1.30127.64551.69043.96777,1.59668.96777,2.71729v4.38721c.49902,0,.86719.10938,1.10547.32812.2373.21875.35645.50488.35645.85791,0,.34521-.12109.62744-.3623.84619-.24219.21875-.64746.32812-1.21484.32812h-2.12988c-.56836,0-.97363-.10938-1.21484-.32812-.24219-.21875-.36328-.50488-.36328-.85791,0-.34521.11914-.62744.35742-.84619.2373-.21875.60645-.32812,1.10547-.32812v-4.45654c0-.51416-.13867-.89014-.41504-1.12842-.36035-.30664-.90234-.46045-1.62305-.46045-.5459,0-1.02344.10547-1.43359.31689-.41113.21094-.93164.6582-1.56055,1.34131v4.38721c.60645,0,.99805.05762,1.1748.17236.37598.23047.56348.56836.56348,1.01367,0,.34521-.12012.62744-.3623.84619s-.64648.32812-1.21484.32812h-2.68262c-.56836,0-.97363-.10938-1.21484-.32812-.24219-.21875-.36328-.50488-.36328-.85791,0-.42969.18457-.76367.55273-1.00195.18457-.11475.58008-.17236,1.18652-.17236v-5.73438c-.49902,0-.86816-.11133-1.10547-.33398-.23828-.22266-.35742-.50684-.35742-.85205,0-.3457.12109-.62744.36328-.84619.24121-.21875.64648-.32812,1.21484-.32812h2.24512Z"/><path class="cls-1" d="m189.22913,77.2168c0,.44531-.15723.81787-.47168,1.11719-.31543.29932-.74902.44873-1.30176.44873-.55176,0-.98633-.14941-1.30078-.44873s-.47168-.67188-.47168-1.11719c0-.44482.15723-.81738.47168-1.1167s.74902-.44922,1.30078-.44922c.55273,0,.98633.1499,1.30176.44922.31445.29932.47168.67188.47168,1.1167Zm.02344,7.72656c0,.44531-.15723.81738-.47266,1.1167-.31445.29932-.74805.44922-1.30078.44922s-.98633-.1499-1.30078-.44922c-.31543-.29932-.47266-.67139-.47266-1.1167s.15723-.81787.47266-1.11719c.31445-.29932.74805-.44873,1.30078-.44873s.98633.14941,1.30078.44873c.31543.29932.47266.67188.47266,1.11719Z"/><path class="cls-10" d="m202.77014,75.63965v8.09473h2.83301c.56836,0,.97266.10938,1.21484.32812s.3623.50488.3623.85791c0,.34521-.12012.62744-.3623.84619s-.64648.32812-1.21484.32812h-8.02539c-.56836,0-.97363-.10938-1.21484-.32812-.24219-.21875-.36328-.50488-.36328-.85791,0-.34521.12109-.62744.36328-.84619.24121-.21875.64648-.32812,1.21484-.32812h2.83203v-5.73438h-1.89941c-.56055,0-.96387-.10938-1.20898-.32812-.24609-.21875-.36914-.50488-.36914-.85791,0-.3457.12109-.62744.36328-.84619.24121-.21875.64648-.32812,1.21484-.32812h4.25977Zm-.32227-4.47949v2.49854h-2.80957v-2.49854h2.80957Z"/><path class="cls-10" d="m218.30334,78.40283c-.38379-.23779-.78711-.41602-1.20898-.53516s-.86328-.17871-1.32422-.17871c-.91309,0-1.63867.1499-2.17578.44922-.23828.13037-.35742.27246-.35742.42578,0,.17676.16113.34961.4834.51855.24609.12256.79492.2417,1.64746.35693,1.56543.21484,2.65527.42969,3.26953.64453.80664.28418,1.42773.70654,1.86523,1.2666.4375.56055.65625,1.15137.65625,1.77344,0,.84424-.37207,1.55078-1.11621,2.11865-1.06738.82129-2.45312,1.23193-4.15723,1.23193-.68359,0-1.31445-.05957-1.89355-.17822-.58008-.11914-1.11133-.29395-1.5957-.52393-.11426.09961-.2373.17676-.36816.22998-.13086.0542-.26465.08057-.40332.08057-.36816,0-.66113-.12061-.88086-.3623-.21875-.24219-.32812-.64697-.32812-1.21484v-.79443c0-.56836.10938-.97314.32812-1.21484.21973-.24219.50488-.36279.8584-.36279.28418,0,.52148.07861.71387.23584.19141.15771.3418.42822.44922.81201.36035.30713.79395.53906,1.30078.69629.50684.15771,1.08984.23633,1.75.23633,1.08301,0,1.92383-.16895,2.52246-.50684.2832-.16846.42578-.34521.42578-.5293,0-.30713-.20312-.56055-.61035-.76025s-1.24707-.36865-2.52148-.50684c-1.89648-.19922-3.16309-.58301-3.7998-1.15137-.6377-.56006-.95605-1.25098-.95605-2.07227,0-.84473.35742-1.54688,1.07129-2.10742.9668-.76758,2.2334-1.15137,3.7998-1.15137.54492,0,1.06836.05176,1.57129.15527s.98438.26318,1.44531.47803c.14551-.10742.28223-.18799.40918-.2417.12598-.05371.24316-.08057.35059-.08057.32227,0,.59082.12061.80664.3623.21387.24219.32227.64697.32227,1.21484v.57568c0,.51465-.06152.86377-.18457,1.04785-.24609.35352-.58008.52979-1.00195.52979-.28418,0-.5332-.08789-.74805-.26465s-.35352-.41064-.41504-.70264Z"/><path class="cls-10" d="m234.85022,80.47559h-9.85645v-2.15332h9.85645v2.15332Z"/><path class="cls-10" d="m246.60608,78.40283c-.38379-.23779-.78711-.41602-1.20898-.53516s-.86328-.17871-1.32422-.17871c-.91309,0-1.63867.1499-2.17578.44922-.23828.13037-.35742.27246-.35742.42578,0,.17676.16113.34961.4834.51855.24609.12256.79492.2417,1.64746.35693,1.56543.21484,2.65527.42969,3.26953.64453.80664.28418,1.42773.70654,1.86523,1.2666.4375.56055.65625,1.15137.65625,1.77344,0,.84424-.37207,1.55078-1.11621,2.11865-1.06738.82129-2.45312,1.23193-4.15723,1.23193-.68359,0-1.31445-.05957-1.89355-.17822-.58008-.11914-1.11133-.29395-1.5957-.52393-.11426.09961-.2373.17676-.36816.22998-.13086.0542-.26465.08057-.40332.08057-.36816,0-.66113-.12061-.88086-.3623-.21875-.24219-.32812-.64697-.32812-1.21484v-.79443c0-.56836.10938-.97314.32812-1.21484.21973-.24219.50488-.36279.8584-.36279.28418,0,.52148.07861.71387.23584.19141.15771.3418.42822.44922.81201.36035.30713.79395.53906,1.30078.69629.50684.15771,1.08984.23633,1.75.23633,1.08301,0,1.92383-.16895,2.52246-.50684.2832-.16846.42578-.34521.42578-.5293,0-.30713-.20312-.56055-.61035-.76025s-1.24707-.36865-2.52148-.50684c-1.89648-.19922-3.16309-.58301-3.7998-1.15137-.6377-.56006-.95605-1.25098-.95605-2.07227,0-.84473.35742-1.54688,1.07129-2.10742.9668-.76758,2.2334-1.15137,3.7998-1.15137.54492,0,1.06836.05176,1.57129.15527s.98438.26318,1.44531.47803c.14551-.10742.28223-.18799.40918-.2417.12598-.05371.24316-.08057.35059-.08057.32227,0,.59082.12061.80664.3623.21387.24219.32227.64697.32227,1.21484v.57568c0,.51465-.06152.86377-.18457,1.04785-.24609.35352-.58008.52979-1.00195.52979-.28418,0-.5332-.08789-.74805-.26465s-.35352-.41064-.41504-.70264Z"/><path class="cls-10" d="m257.62561,78v4.73242c0,.50684.10352.84082.31055,1.00195.32324.25293.89844.37988,1.72754.37988,1.20508,0,2.31836-.25732,3.33984-.77148.39062-.19971.69824-.29932.9209-.29932.30664,0,.57324.11523.7998.34521.22656.23047.33984.51074.33984.84082,0,.30713-.12305.57178-.36816.79443-.37598.36084-1.11914.69287-2.22852.99609s-2.04395.45459-2.80371.45459c-1.46582,0-2.56543-.31641-3.29883-.94971s-1.09961-1.41064-1.09961-2.33203v-5.19287h-.85254c-.56738,0-.97266-.10938-1.21484-.32812-.24121-.21875-.3623-.50488-.3623-.85791,0-.3457.12109-.62744.3623-.84619.24219-.21875.64746-.32812,1.21484-.32812h.85254v-2.13037c0-.56787.10938-.97314.32812-1.21484s.50488-.36279.85742-.36279c.3457,0,.62793.12109.84668.36279s.32812.64697.32812,1.21484v2.13037h4.36426c.56836,0,.97266.10938,1.21484.32812.24121.21875.3623.50488.3623.85742,0,.3457-.12109.62793-.3623.84668-.24219.21875-.64648.32812-1.21484.32812h-4.36426Z"/><path class="cls-10" d="m274.48303,86.09473v-.55273c-.59082.31494-1.24316.55078-1.95703.70801s-1.36328.23633-1.94629.23633c-1.2666,0-2.2959-.33594-3.08594-1.00781-.79102-.67139-1.18652-1.41406-1.18652-2.22803,0-.99023.50488-1.90918,1.51465-2.75781,1.00879-.84814,2.4043-1.27197,4.18555-1.27197.71387,0,1.53906.07666,2.47559.22998v-.56396c0-.35303-.15137-.64111-.45508-.86377-.30273-.22266-.88086-.33398-1.73242-.33398-.69922,0-1.60449.13818-2.71777.41455-.41406.1001-.7373.1499-.9668.1499-.31543,0-.58203-.11328-.80078-.33984s-.32812-.51611-.32812-.86914c0-.19971.03809-.37256.11523-.51855.07617-.14551.18457-.2627.32227-.35107.13867-.08789.42578-.19385.86328-.31641.58398-.16162,1.17871-.29004,1.78516-.38574.60645-.09619,1.15527-.14404,1.64648-.14404,1.4668,0,2.60449.31641,3.41406.94971s1.21484,1.49902,1.21484,2.59668v4.85938h.40332c.56738,0,.97266.10938,1.21484.32812.24121.21875.3623.50488.3623.85791,0,.34521-.12109.62744-.3623.84619-.24219.21875-.64746.32812-1.21484.32812h-2.76367Zm0-4.22607c-.94434-.18408-1.81543-.27637-2.61426-.27637-.95898,0-1.78418.23438-2.47559.70264-.42969.29932-.64453.60254-.64453.90967,0,.22266.10352.40283.31055.54102.38379.25342.91016.37988,1.57812.37988.56738,0,1.21094-.11084,1.92871-.3335s1.35645-.52588,1.91699-.90967v-1.01367Z"/><path class="cls-10" d="m286.02014,75.63965v1.47363c.99023-.71387,1.77148-1.18994,2.34375-1.42773.57129-.23779,1.10742-.35693,1.60645-.35693.76758,0,1.51172.28418,2.2334.85205.49121.38379.7373.77539.7373,1.17432,0,.33789-.11719.62402-.35156.85791-.23438.23438-.5166.35107-.8457.35107-.29199,0-.59961-.14551-.92188-.4375-.32227-.2915-.61035-.4375-.86328-.4375-.33008,0-.82324.20752-1.47949.62207s-1.47559,1.03613-2.45898,1.86523v3.55811h3.3623c.56836,0,.97363.10938,1.21484.32812.24219.21875.36328.50488.36328.85791,0,.34521-.12109.62744-.36328.84619-.24121.21875-.64648.32812-1.21484.32812h-7.12695c-.56836,0-.97363-.10938-1.21484-.32812-.24219-.21875-.36328-.50488-.36328-.85791,0-.34521.12109-.62744.36328-.84619.24121-.21875.64648-.32812,1.21484-.32812h1.4043v-5.73438h-.85156c-.56836,0-.97363-.10938-1.21484-.32812-.24219-.21875-.36328-.50488-.36328-.85791,0-.3457.12109-.62744.36328-.84619.24121-.21875.64648-.32812,1.21484-.32812h3.21191Z"/><path class="cls-10" d="m300.07971,78v4.73242c0,.50684.10352.84082.31055,1.00195.32324.25293.89844.37988,1.72754.37988,1.20508,0,2.31836-.25732,3.33984-.77148.39062-.19971.69824-.29932.9209-.29932.30664,0,.57324.11523.7998.34521.22656.23047.33984.51074.33984.84082,0,.30713-.12305.57178-.36816.79443-.37598.36084-1.11914.69287-2.22852.99609s-2.04395.45459-2.80371.45459c-1.46582,0-2.56543-.31641-3.29883-.94971s-1.09961-1.41064-1.09961-2.33203v-5.19287h-.85254c-.56738,0-.97266-.10938-1.21484-.32812-.24121-.21875-.3623-.50488-.3623-.85791,0-.3457.12109-.62744.3623-.84619.24219-.21875.64746-.32812,1.21484-.32812h.85254v-2.13037c0-.56787.10938-.97314.32812-1.21484s.50488-.36279.85742-.36279c.3457,0,.62793.12109.84668.36279s.32812.64697.32812,1.21484v2.13037h4.36426c.56836,0,.97266.10938,1.21484.32812.24121.21875.3623.50488.3623.85742,0,.3457-.12109.62793-.3623.84668-.24219.21875-.64648.32812-1.21484.32812h-4.36426Z"/><path class="cls-10" d="m319.75842,80.47559h-9.85645v-2.15332h9.85645v2.15332Z"/><path class="cls-10" d="m325.98792,71.16016v5.29688c.5752-.37598,1.16016-.6582,1.75586-.84619.59473-.18799,1.19531-.28223,1.80176-.28223,1.63477,0,3.02051.56396,4.15723,1.69238,1.13574,1.12842,1.7041,2.49121,1.7041,4.08789,0,1.52783-.54199,2.80371-1.62402,3.82861s-2.50977,1.53711-4.2832,1.53711c-.62988,0-1.23633-.08057-1.81934-.2417-.58398-.16113-1.14746-.39893-1.69238-.71387v.57568h-2.76367c-.56836,0-.97363-.10938-1.21484-.32812-.24219-.21875-.36328-.50488-.36328-.85791,0-.34521.12305-.62744.36914-.84619.24512-.21875.64844-.32812,1.20898-.32812h.40234v-10.21387h-.40234c-.56836,0-.97363-.10938-1.21484-.32812-.24219-.21875-.36328-.50439-.36328-.85791,0-.34521.12109-.62744.36328-.84619.24121-.21875.64648-.32812,1.21484-.32812h2.76367Zm7.05762,10.01758c0-.97461-.34082-1.7998-1.02441-2.47559-.68359-.67529-1.51953-1.01318-2.50977-1.01318-.9834,0-1.81543.33789-2.49902,1.01318-.68359.67578-1.02441,1.48975-1.02441,2.44141,0,.86719.30664,1.57959.9209,2.13574.61426.55664,1.48145.83496,2.60254.83496,1.12012,0,1.98926-.27832,2.60742-.83496.61816-.55615.92676-1.25684.92676-2.10156Z"/><path class="cls-10" d="m348.13049,75.63965v8.09473c.49805,0,.86719.11133,1.10547.33398.2373.22266.35645.50635.35645.85205,0,.34521-.12109.62744-.3623.84619-.24219.21875-.64746.32812-1.21484.32812h-2.24609v-.54102c-.6748.30713-1.32031.53711-1.93359.69092-.61426.15332-1.19824.22998-1.75098.22998-.77539,0-1.44727-.16309-2.01465-.48926-.56836-.32617-1.01758-.77734-1.34766-1.35303-.2373-.41455-.35645-.93262-.35645-1.5542v-5.07812h-.40332c-.56836,0-.97266-.10938-1.21484-.32812-.24121-.21875-.3623-.50488-.3623-.85791,0-.3457.12109-.62744.3623-.84619.24219-.21875.64648-.32812,1.21484-.32812h2.76367v7.02393c0,.49902.12109.86523.3623,1.09961.24219.23389.6123.35107,1.11133.35107.47559,0,.98828-.09375,1.53711-.28223.54883-.18799,1.22656-.52783,2.03223-1.01904v-4.81299h-.85156c-.56836,0-.97266-.10938-1.21484-.32812s-.3623-.50488-.3623-.85791c0-.3457.12012-.62744.3623-.84619s.64648-.32812,1.21484-.32812h3.21289Z"/><path class="cls-10" d="m356.68518,78v4.73242c0,.50684.10352.84082.31055,1.00195.32324.25293.89844.37988,1.72754.37988,1.20508,0,2.31836-.25732,3.33984-.77148.39062-.19971.69824-.29932.9209-.29932.30664,0,.57324.11523.7998.34521.22656.23047.33984.51074.33984.84082,0,.30713-.12305.57178-.36816.79443-.37598.36084-1.11914.69287-2.22852.99609s-2.04395.45459-2.80371.45459c-1.46582,0-2.56543-.31641-3.29883-.94971s-1.09961-1.41064-1.09961-2.33203v-5.19287h-.85254c-.56738,0-.97266-.10938-1.21484-.32812-.24121-.21875-.3623-.50488-.3623-.85791,0-.3457.12109-.62744.3623-.84619.24219-.21875.64746-.32812,1.21484-.32812h.85254v-2.13037c0-.56787.10938-.97314.32812-1.21484s.50488-.36279.85742-.36279c.3457,0,.62793.12109.84668.36279s.32812.64697.32812,1.21484v2.13037h4.36426c.56836,0,.97266.10938,1.21484.32812.24121.21875.3623.50488.3623.85742,0,.3457-.12109.62793-.3623.84668-.24219.21875-.64648.32812-1.21484.32812h-4.36426Z"/><path class="cls-10" d="m370.83655,78v4.73242c0,.50684.10352.84082.31055,1.00195.32324.25293.89844.37988,1.72754.37988,1.20508,0,2.31836-.25732,3.33984-.77148.39062-.19971.69824-.29932.9209-.29932.30664,0,.57324.11523.7998.34521.22656.23047.33984.51074.33984.84082,0,.30713-.12305.57178-.36816.79443-.37598.36084-1.11914.69287-2.22852.99609s-2.04395.45459-2.80371.45459c-1.46582,0-2.56543-.31641-3.29883-.94971s-1.09961-1.41064-1.09961-2.33203v-5.19287h-.85254c-.56738,0-.97266-.10938-1.21484-.32812-.24121-.21875-.3623-.50488-.3623-.85791,0-.3457.12109-.62744.3623-.84619.24219-.21875.64746-.32812,1.21484-.32812h.85254v-2.13037c0-.56787.10938-.97314.32812-1.21484s.50488-.36279.85742-.36279c.3457,0,.62793.12109.84668.36279s.32812.64697.32812,1.21484v2.13037h4.36426c.56836,0,.97266.10938,1.21484.32812.24121.21875.3623.50488.3623.85742,0,.3457-.12109.62793-.3623.84668-.24219.21875-.64648.32812-1.21484.32812h-4.36426Z"/><path class="cls-10" d="m391.70081,81.06299c0,.90576-.25098,1.78271-.75391,2.63086s-1.25098,1.52393-2.24512,2.02686c-.99414.50244-2.03223.75391-3.11523.75391-1.07422,0-2.10352-.24756-3.08594-.74268s-1.73047-1.16846-2.24512-2.02051c-.51465-.85254-.77148-1.74268-.77148-2.67188,0-.94385.26074-1.87109.7832-2.78076.52148-.90967,1.27246-1.625,2.25098-2.14746.97852-.52197,2.00195-.78271,3.06836-.78271,1.0752,0,2.10938.2666,3.10352.80029s1.74414,1.25098,2.25098,2.15332c.50684.90186.75977,1.82861.75977,2.78076Zm-2.36035.01123c0-.75977-.27246-1.4585-.81738-2.0957-.74512-.85938-1.72363-1.28955-2.93652-1.28955-1.06641,0-1.95703.3418-2.6709,1.0249s-1.07129,1.47363-1.07129,2.37207c0,.73682.36133,1.42578,1.08301,2.06689.7207.64111,1.60742.96143,2.65918.96143,1.05957,0,1.9502-.32031,2.67188-.96143s1.08203-1.33398,1.08203-2.07861Z"/><path class="cls-10" d="m397.33167,75.63965v.79443c.42969-.36865.9043-.64502,1.42188-.8291.51855-.18457,1.08008-.27637,1.6875-.27637,1.39648,0,2.50195.43359,3.31543,1.30127.64551.69043.96777,1.59668.96777,2.71729v4.38721c.49902,0,.86719.10938,1.10547.32812.2373.21875.35645.50488.35645.85791,0,.34521-.12109.62744-.3623.84619-.24219.21875-.64746.32812-1.21484.32812h-2.12988c-.56836,0-.97363-.10938-1.21484-.32812-.24219-.21875-.36328-.50488-.36328-.85791,0-.34521.11914-.62744.35742-.84619.2373-.21875.60645-.32812,1.10547-.32812v-4.45654c0-.51416-.13867-.89014-.41504-1.12842-.36035-.30664-.90234-.46045-1.62305-.46045-.5459,0-1.02344.10547-1.43359.31689-.41113.21094-.93164.6582-1.56055,1.34131v4.38721c.60645,0,.99805.05762,1.1748.17236.37598.23047.56348.56836.56348,1.01367,0,.34521-.12012.62744-.3623.84619s-.64648.32812-1.21484.32812h-2.68262c-.56836,0-.97363-.10938-1.21484-.32812-.24219-.21875-.36328-.50488-.36328-.85791,0-.42969.18457-.76367.55273-1.00195.18457-.11475.58008-.17236,1.18652-.17236v-5.73438c-.49902,0-.86816-.11133-1.10547-.33398-.23828-.22266-.35742-.50684-.35742-.85205,0-.3457.12109-.62744.36328-.84619.24121-.21875.64648-.32812,1.21484-.32812h2.24512Z"/><path class="cls-1" d="m418.93323,78.33398h-10.08691c-.56836,0-.97363-.10938-1.21484-.32812-.24219-.21875-.36328-.50488-.36328-.85791,0-.3457.12109-.62744.36328-.84668.24121-.21875.64648-.32812,1.21484-.32812h10.08691c.56738,0,.97266.10938,1.21484.32812.24121.21924.3623.50488.3623.85791,0,.3457-.12109.62793-.3623.84668-.24219.21875-.64746.32812-1.21484.32812Zm0,4.44434h-10.08691c-.56836,0-.97363-.10742-1.21484-.32227-.24219-.21484-.36328-.49902-.36328-.85205s.12109-.63916.36328-.85791c.24121-.21875.64648-.32812,1.21484-.32812h10.08691c.56738,0,.97266.10938,1.21484.32812.24121.21875.3623.50488.3623.85791s-.12109.63721-.3623.85205c-.24219.21484-.64746.32227-1.21484.32227Z"/><path class="cls-1" d="m425.48499,71.56299h2.79785l-3.54688,5.68848c-.19922.31494-.41016.47217-.63281.47217-.2002,0-.37598-.06934-.53027-.20752-.15332-.13818-.22949-.28369-.22949-.4375,0-.13037.03418-.28369.10352-.46045l2.03809-5.05518Zm4.95117,0h2.79785l-3.54688,5.68848c-.19922.31494-.41016.47217-.63281.47217-.2002,0-.37598-.06934-.53027-.20752-.15332-.13818-.22949-.28369-.22949-.4375,0-.13037.03418-.28369.10352-.46045l2.03809-5.05518Z"/><path class="cls-3" d="m441.59338,78v4.73242c0,.50684.10352.84082.31055,1.00195.32324.25293.89844.37988,1.72754.37988,1.20508,0,2.31836-.25732,3.33984-.77148.39062-.19971.69824-.29932.9209-.29932.30664,0,.57324.11523.7998.34521.22656.23047.33984.51074.33984.84082,0,.30713-.12305.57178-.36816.79443-.37598.36084-1.11914.69287-2.22852.99609s-2.04395.45459-2.80371.45459c-1.46582,0-2.56543-.31641-3.29883-.94971s-1.09961-1.41064-1.09961-2.33203v-5.19287h-.85254c-.56738,0-.97266-.10938-1.21484-.32812-.24121-.21875-.3623-.50488-.3623-.85791,0-.3457.12109-.62744.3623-.84619.24219-.21875.64746-.32812,1.21484-.32812h.85254v-2.13037c0-.56787.10938-.97314.32812-1.21484s.50488-.36279.85742-.36279c.3457,0,.62793.12109.84668.36279s.32812.64697.32812,1.21484v2.13037h4.36426c.56836,0,.97266.10938,1.21484.32812.24121.21875.3623.50488.3623.85742,0,.3457-.12109.62793-.3623.84668-.24219.21875-.64648.32812-1.21484.32812h-4.36426Z"/><path class="cls-3" d="m455.83655,75.63965v1.47363c.99023-.71387,1.77148-1.18994,2.34375-1.42773.57129-.23779,1.10742-.35693,1.60645-.35693.76758,0,1.51172.28418,2.2334.85205.49121.38379.7373.77539.7373,1.17432,0,.33789-.11719.62402-.35156.85791-.23438.23438-.5166.35107-.8457.35107-.29199,0-.59961-.14551-.92188-.4375-.32227-.2915-.61035-.4375-.86328-.4375-.33008,0-.82324.20752-1.47949.62207s-1.47559,1.03613-2.45898,1.86523v3.55811h3.3623c.56836,0,.97363.10938,1.21484.32812.24219.21875.36328.50488.36328.85791,0,.34521-.12109.62744-.36328.84619-.24121.21875-.64648.32812-1.21484.32812h-7.12695c-.56836,0-.97363-.10938-1.21484-.32812-.24219-.21875-.36328-.50488-.36328-.85791,0-.34521.12109-.62744.36328-.84619.24121-.21875.64648-.32812,1.21484-.32812h1.4043v-5.73438h-.85156c-.56836,0-.97363-.10938-1.21484-.32812-.24219-.21875-.36328-.50488-.36328-.85791,0-.3457.12109-.62744.36328-.84619.24121-.21875.64648-.32812,1.21484-.32812h3.21191Z"/><path class="cls-3" d="m475.4928,75.63965v8.09473c.49805,0,.86719.11133,1.10547.33398.2373.22266.35645.50635.35645.85205,0,.34521-.12109.62744-.3623.84619-.24219.21875-.64746.32812-1.21484.32812h-2.24609v-.54102c-.6748.30713-1.32031.53711-1.93359.69092-.61426.15332-1.19824.22998-1.75098.22998-.77539,0-1.44727-.16309-2.01465-.48926-.56836-.32617-1.01758-.77734-1.34766-1.35303-.2373-.41455-.35645-.93262-.35645-1.5542v-5.07812h-.40332c-.56836,0-.97266-.10938-1.21484-.32812-.24121-.21875-.3623-.50488-.3623-.85791,0-.3457.12109-.62744.3623-.84619.24219-.21875.64648-.32812,1.21484-.32812h2.76367v7.02393c0,.49902.12109.86523.3623,1.09961.24219.23389.6123.35107,1.11133.35107.47559,0,.98828-.09375,1.53711-.28223.54883-.18799,1.22656-.52783,2.03223-1.01904v-4.81299h-.85156c-.56836,0-.97266-.10938-1.21484-.32812s-.3623-.50488-.3623-.85791c0-.3457.12012-.62744.3623-.84619s.64648-.32812,1.21484-.32812h3.21289Z"/><path class="cls-3" d="m490.55334,82.06445h-9.68359c.24512.61426.68066,1.10938,1.30664,1.48535.62598.37646,1.47168.56445,2.53906.56445.875,0,2.03809-.18799,3.48926-.56445.59863-.15332,1.0127-.22998,1.24316-.22998.31445,0,.58008.11133.79492.33398s.32227.50244.32227.84033c0,.30713-.11523.56836-.3457.7832-.30664.28369-1.05566.55469-2.24512.81152-1.19043.25732-2.33398.38574-3.43164.38574-1.88867,0-3.39844-.5332-4.53125-1.60059-1.13184-1.06689-1.69824-2.37939-1.69824-3.93799,0-1.6582.6123-3.00684,1.83691-4.04736,1.22461-1.04004,2.63477-1.56006,4.23145-1.56006.95996,0,1.84082.16895,2.64258.50635.80176.33789,1.39941.70264,1.79102,1.09424.55273.56787,1.00879,1.27051,1.37012,2.10693.24512.5835.36816,1.25928.36816,2.02686v1.00146Zm-2.61426-2.36035c-.36035-.67529-.83301-1.18018-1.41602-1.51416s-1.27832-.50098-2.08398-.50098c-.79883,0-1.48926.16699-2.07227.50098-.58398.33398-1.05957.83887-1.42773,1.51416h7Z"/><path class="cls-1" d="m496.24182,71.56299h2.79785l-3.54688,5.68848c-.19922.31494-.41016.47217-.63281.47217-.2002,0-.37598-.06934-.53027-.20752-.15332-.13818-.22949-.28369-.22949-.4375,0-.13037.03418-.28369.10352-.46045l2.03809-5.05518Zm4.95117,0h2.79785l-3.54688,5.68848c-.19922.31494-.41016.47217-.63281.47217-.2002,0-.37598-.06934-.53027-.20752-.15332-.13818-.22949-.28369-.22949-.4375,0-.13037.03418-.28369.10352-.46045l2.03809-5.05518Z"/><path class="cls-1" d="m515.42444,79.37012l-7.64551-4.2373c-.38379-.21484-.63867-.40674-.76562-.57568s-.19043-.38379-.19043-.64502c0-.33008.11914-.61377.35742-.85205.23828-.23779.51855-.35693.84082-.35693.19922,0,.50684.11133.9209.33398l11.3877,6.33301-11.3877,6.33301c-.41406.23047-.72168.3457-.9209.3457-.32227,0-.60254-.11914-.84082-.35693s-.35742-.52588-.35742-.86377c0-.26074.06348-.47607.19043-.64502.12695-.16846.38184-.36035.76562-.57568l7.64551-4.2373Z"/><path class="cls-1" d="m56.63928,113.79443c-.20703.24561-.37402.40283-.50098.47217-.12598.06885-.28223.10352-.46582.10352-.36133,0-.65039-.12109-.86914-.36279-.21973-.2417-.3291-.64307-.3291-1.20312v-1.58936c0-.56787.10938-.97266.3291-1.21484.21875-.2417.50781-.3623.86914-.3623.27637,0,.50781.07275.69629.21875s.33203.38965.43164.73096c.09961.3418.20312.57422.31152.69678.22168.23779.61719.47998,1.18555.72559s1.18945.36816,1.86523.36816c1.05176,0,1.91504-.24561,2.59082-.73682.42969-.29932.64453-.66797.64453-1.10547,0-.2915-.10352-.56592-.31055-.82324s-.54492-.47021-1.0127-.63916c-.30762-.11523-.99512-.27246-2.06152-.47217-1.29004-.23779-2.26465-.52539-2.9248-.86328s-1.18262-.81396-1.56641-1.42822c-.38379-.61377-.5752-1.27783-.5752-1.9917,0-1.12842.47168-2.1167,1.41602-2.96533.94434-.84814,2.17285-1.27197,3.68457-1.27197.60645,0,1.16895.06689,1.6875.20117.51758.13428.98828.33984,1.41016.61621.30664-.29932.61426-.44922.9209-.44922.3457,0,.62793.12109.84668.36279s.32812.64307.32812,1.20312v1.77344c0,.56836-.10938.97314-.32812,1.21484s-.50098.36279-.84668.36279c-.29102,0-.54492-.08838-.75977-.26514-.16895-.13037-.2959-.39111-.37988-.78271-.08496-.3916-.19238-.67188-.32227-.84082-.22266-.2915-.55664-.53711-1.00195-.73682s-.95996-.29932-1.54297-.29932c-.85156,0-1.52539.19775-2.02051.59277-.49512.39551-.74316.80811-.74316,1.23779,0,.29199.10156.57422.30566.84668.20312.27246.50098.48535.89258.63867.26074.10791.99512.28076,2.20508.51855,1.20898.23779,2.1377.49902,2.78613.78271.64844.28418,1.1875.72949,1.61816,1.33594.42969.60645.64453,1.32812.64453,2.16455,0,1.16699-.41113,2.09961-1.23242,2.79834-1.08984.9209-2.47949,1.38135-4.16797,1.38135-.65234,0-1.28809-.07861-1.90625-.23584-.61719-.15723-1.21875-.39307-1.80176-.70801Z"/><path class="cls-1" d="m73.65784,106.29834v4.73242c0,.50684.10352.84082.31055,1.00195.32324.25293.89844.37988,1.72754.37988,1.20508,0,2.31836-.25732,3.33984-.77148.39062-.19971.69824-.29932.9209-.29932.30664,0,.57324.11523.7998.34521.22656.23047.33984.51074.33984.84082,0,.30713-.12305.57178-.36816.79443-.37598.36084-1.11914.69287-2.22852.99609s-2.04395.45459-2.80371.45459c-1.46582,0-2.56543-.31641-3.29883-.94971s-1.09961-1.41064-1.09961-2.33203v-5.19287h-.85254c-.56738,0-.97266-.10938-1.21484-.32812-.24121-.21875-.3623-.50488-.3623-.85791,0-.3457.12109-.62744.3623-.84619.24219-.21875.64746-.32812,1.21484-.32812h.85254v-2.13037c0-.56787.10938-.97314.32812-1.21484s.50488-.36279.85742-.36279c.3457,0,.62793.12109.84668.36279s.32812.64697.32812,1.21484v2.13037h4.36426c.56836,0,.97266.10938,1.21484.32812.24121.21875.3623.50488.3623.85742,0,.3457-.12109.62793-.3623.84668-.24219.21875-.64648.32812-1.21484.32812h-4.36426Z"/><path class="cls-1" d="m90.51526,114.39307v-.55273c-.59082.31494-1.24316.55078-1.95703.70801s-1.36328.23633-1.94629.23633c-1.2666,0-2.2959-.33594-3.08594-1.00781-.79102-.67139-1.18652-1.41406-1.18652-2.22803,0-.99023.50488-1.90918,1.51465-2.75781,1.00879-.84814,2.4043-1.27197,4.18555-1.27197.71387,0,1.53906.07666,2.47559.22998v-.56396c0-.35303-.15137-.64111-.45508-.86377-.30273-.22266-.88086-.33398-1.73242-.33398-.69922,0-1.60449.13818-2.71777.41455-.41406.1001-.7373.1499-.9668.1499-.31543,0-.58203-.11328-.80078-.33984s-.32812-.51611-.32812-.86914c0-.19971.03809-.37256.11523-.51855.07617-.14551.18457-.2627.32227-.35107.13867-.08789.42578-.19385.86328-.31641.58398-.16162,1.17871-.29004,1.78516-.38574.60645-.09619,1.15527-.14404,1.64648-.14404,1.4668,0,2.60449.31641,3.41406.94971s1.21484,1.49902,1.21484,2.59668v4.85938h.40332c.56738,0,.97266.10938,1.21484.32812.24121.21875.3623.50488.3623.85791,0,.34521-.12109.62744-.3623.84619-.24219.21875-.64746.32812-1.21484.32812h-2.76367Zm0-4.22607c-.94434-.18408-1.81543-.27637-2.61426-.27637-.95898,0-1.78418.23438-2.47559.70264-.42969.29932-.64453.60254-.64453.90967,0,.22266.10352.40283.31055.54102.38379.25342.91016.37988,1.57812.37988.56738,0,1.21094-.11084,1.92871-.3335s1.35645-.52588,1.91699-.90967v-1.01367Z"/><path class="cls-1" d="m102.05237,103.93799v1.47363c.99023-.71387,1.77148-1.18994,2.34375-1.42773.57129-.23779,1.10742-.35693,1.60645-.35693.76758,0,1.51172.28418,2.2334.85205.49121.38379.7373.77539.7373,1.17432,0,.33789-.11719.62402-.35156.85791-.23438.23438-.5166.35107-.8457.35107-.29199,0-.59961-.14551-.92188-.4375-.32227-.2915-.61035-.4375-.86328-.4375-.33008,0-.82324.20752-1.47949.62207s-1.47559,1.03613-2.45898,1.86523v3.55811h3.3623c.56836,0,.97363.10938,1.21484.32812.24219.21875.36328.50488.36328.85791,0,.34521-.12109.62744-.36328.84619-.24121.21875-.64648.32812-1.21484.32812h-7.12695c-.56836,0-.97363-.10938-1.21484-.32812-.24219-.21875-.36328-.50488-.36328-.85791,0-.34521.12109-.62744.36328-.84619.24121-.21875.64648-.32812,1.21484-.32812h1.4043v-5.73438h-.85156c-.56836,0-.97363-.10938-1.21484-.32812-.24219-.21875-.36328-.50488-.36328-.85791,0-.3457.12109-.62744.36328-.84619.24121-.21875.64648-.32812,1.21484-.32812h3.21191Z"/><path class="cls-1" d="m116.11194,106.29834v4.73242c0,.50684.10352.84082.31055,1.00195.32324.25293.89844.37988,1.72754.37988,1.20508,0,2.31836-.25732,3.33984-.77148.39062-.19971.69824-.29932.9209-.29932.30664,0,.57324.11523.7998.34521.22656.23047.33984.51074.33984.84082,0,.30713-.12305.57178-.36816.79443-.37598.36084-1.11914.69287-2.22852.99609s-2.04395.45459-2.80371.45459c-1.46582,0-2.56543-.31641-3.29883-.94971s-1.09961-1.41064-1.09961-2.33203v-5.19287h-.85254c-.56738,0-.97266-.10938-1.21484-.32812-.24121-.21875-.3623-.50488-.3623-.85791,0-.3457.12109-.62744.3623-.84619.24219-.21875.64746-.32812,1.21484-.32812h.85254v-2.13037c0-.56787.10938-.97314.32812-1.21484s.50488-.36279.85742-.36279c.3457,0,.62793.12109.84668.36279s.32812.64697.32812,1.21484v2.13037h4.36426c.56836,0,.97266.10938,1.21484.32812.24121.21875.3623.50488.3623.85742,0,.3457-.12109.62793-.3623.84668-.24219.21875-.64648.32812-1.21484.32812h-4.36426Z"/><path class="cls-1" d="m142.60706,103.93799v.79443c.42969-.36865.9043-.64502,1.42188-.8291.51855-.18457,1.08008-.27637,1.6875-.27637,1.39648,0,2.50195.43359,3.31543,1.30127.64551.69043.96777,1.59668.96777,2.71729v4.38721c.49902,0,.86719.10938,1.10547.32812.2373.21875.35645.50488.35645.85791,0,.34521-.12109.62744-.3623.84619-.24219.21875-.64746.32812-1.21484.32812h-2.12988c-.56836,0-.97363-.10938-1.21484-.32812-.24219-.21875-.36328-.50488-.36328-.85791,0-.34521.11914-.62744.35742-.84619.2373-.21875.60645-.32812,1.10547-.32812v-4.45654c0-.51416-.13867-.89014-.41504-1.12842-.36035-.30664-.90234-.46045-1.62305-.46045-.5459,0-1.02344.10547-1.43359.31689-.41113.21094-.93164.6582-1.56055,1.34131v4.38721c.60645,0,.99805.05762,1.1748.17236.37598.23047.56348.56836.56348,1.01367,0,.34521-.12012.62744-.3623.84619s-.64648.32812-1.21484.32812h-2.68262c-.56836,0-.97363-.10938-1.21484-.32812-.24219-.21875-.36328-.50488-.36328-.85791,0-.42969.18457-.76367.55273-1.00195.18457-.11475.58008-.17236,1.18652-.17236v-5.73438c-.49902,0-.86816-.11133-1.10547-.33398-.23828-.22266-.35742-.50684-.35742-.85205,0-.3457.12109-.62744.36328-.84619.24121-.21875.64648-.32812,1.21484-.32812h2.24512Z"/><path class="cls-1" d="m165.27893,109.36133c0,.90576-.25098,1.78271-.75391,2.63086s-1.25098,1.52393-2.24512,2.02686c-.99414.50244-2.03223.75391-3.11523.75391-1.07422,0-2.10352-.24756-3.08594-.74268s-1.73047-1.16846-2.24512-2.02051c-.51465-.85254-.77148-1.74268-.77148-2.67188,0-.94385.26074-1.87109.7832-2.78076.52148-.90967,1.27246-1.625,2.25098-2.14746.97852-.52197,2.00195-.78271,3.06836-.78271,1.0752,0,2.10938.2666,3.10352.80029s1.74414,1.25098,2.25098,2.15332c.50684.90186.75977,1.82861.75977,2.78076Zm-2.36035.01123c0-.75977-.27246-1.4585-.81738-2.0957-.74512-.85938-1.72363-1.28955-2.93652-1.28955-1.06641,0-1.95703.3418-2.6709,1.0249s-1.07129,1.47363-1.07129,2.37207c0,.73682.36133,1.42578,1.08301,2.06689.7207.64111,1.60742.96143,2.65918.96143,1.05957,0,1.9502-.32031,2.67188-.96143s1.08203-1.33398,1.08203-2.07861Z"/><path class="cls-1" d="m173.31604,110.04053l-1.63477,4.35254h-2.22266l-1.98047-8.09473c-.42969-.02295-.75391-.14404-.97266-.36279s-.32812-.49316-.32812-.82324c0-.3457.12109-.62744.3623-.84619.24219-.21875.64648-.32812,1.21484-.32812h2.19922c.56836,0,.97363.10938,1.21484.32812.24219.21875.36328.50488.36328.85742,0,.35352-.13867.65283-.41504.89844-.20703.18408-.61426.27637-1.2207.27637l.89844,3.74219,1.46191-3.83447h2.0957l1.47461,3.83447.9209-3.74219c-.58301,0-.9668-.05762-1.15137-.17285-.36816-.23779-.55273-.57568-.55273-1.01318,0-.3457.12109-.62744.3623-.84619.24219-.21875.64648-.32812,1.21484-.32812h2.22266c.56836,0,.97266.10938,1.21484.32812s.3623.50488.3623.85742c0,.31494-.10547.58154-.31641.80029s-.52344.34375-.93848.37451l-1.93457,8.09473h-2.1875l-1.72754-4.35254Z"/><path class="cls-1" d="m29.31506,135.9668l7.64648,4.2373c.38379.21533.63867.40723.76562.57568.12598.16895.18945.38428.18945.64502,0,.33008-.11914.61621-.35645.85791-.23828.2417-.51465.36279-.8291.36279-.20703,0-.51855-.11523-.93262-.3457l-11.38867-6.33301,11.38867-6.33301c.41406-.22266.72168-.33398.9209-.33398.32227,0,.60254.11914.84082.35693.2373.23828.35645.52197.35645.85205,0,.26123-.06348.47607-.18945.64502-.12695.16895-.38184.36084-.76562.57568l-7.64648,4.2373Z"/><path class="cls-1" d="m50.80139,128.06787l-7.56445,16.30469c-.19238.40674-.36523.67139-.51855.79443-.2002.16113-.44141.2417-.72559.2417-.32227,0-.60059-.11475-.83496-.34521s-.35059-.49121-.35059-.7832c0-.20703.0918-.51025.27637-.90967l7.58789-16.29297c.19141-.40674.36035-.67188.50684-.79443.20703-.16162.44922-.24219.72559-.24219.32227,0,.59863.11377.8291.33984.22949.22656.34473.48584.34473.77734,0,.20703-.0918.51074-.27637.90967Z"/><path class="cls-11" d="m62.6842,132.93848v-.70215h2.76367c.56836,0,.97363.10938,1.21484.32812.24219.21875.36328.50488.36328.85742,0,.3457-.12109.62793-.36328.84668-.24121.21875-.64648.32812-1.21484.32812h-.40234v8.58984c0,.8291-.1748,1.55273-.52441,2.17041-.34961.61816-.88477,1.14941-1.60645,1.59473s-1.53516.66797-2.44043.66797h-2.67188c-.56836,0-.97266-.10938-1.21484-.32812s-.3623-.50098-.3623-.84619c0-.35352.12012-.63916.3623-.85791s.64648-.32812,1.21484-.32812h2.60254c.72168,0,1.28223-.1958,1.68066-.5874.39941-.3916.59863-.88672.59863-1.48535v-1.15137c-.52148.33789-1.05273.59131-1.59473.75977-.54102.16895-1.0957.25342-1.66309.25342-1.60449,0-2.94824-.53564-4.03027-1.60645-1.08301-1.0708-1.62402-2.39307-1.62402-3.9668,0-1.58105.54102-2.90723,1.62402-3.97803,1.08203-1.0708,2.42578-1.60645,4.03027-1.60645.59863,0,1.16797.08643,1.70996.25928.54102.17236,1.05664.43555,1.54785.78857Zm-.01074,4.52539c0-.86768-.32129-1.61963-.96191-2.25684s-1.41016-.95605-2.30859-.95605-1.66797.31885-2.30859.95605c-.6416.63721-.96191,1.38916-.96191,2.25684,0,.875.32031,1.62939.96191,2.2627.64062.6333,1.41016.94971,2.30859.94971s1.66797-.31641,2.30859-.94971.96191-1.3877.96191-2.2627Z"/><path class="cls-11" d="m74.25647,139.82422l2.54492-5.22754c-.62988,0-1.03223-.05371-1.20898-.16113-.38379-.23779-.57617-.57959-.57617-1.0249,0-.3457.12109-.62744.36328-.84619.24121-.21875.64648-.32812,1.21484-.32812h3.23535c.56836,0,.97266.10938,1.21484.32812s.3623.50488.3623.85742c0,.3457-.12012.62793-.3623.84668s-.64648.32812-1.21484.32812h-.3916l-3.94922,8.09473h-2.46387l-3.9502-8.09473h-.33398c-.56738,0-.97266-.10938-1.21484-.32812-.24121-.21875-.3623-.50488-.3623-.85791,0-.3457.12109-.62744.3623-.84619.24219-.21875.64746-.32812,1.21484-.32812h3.16699c.56055,0,.96094.10938,1.20312.32812s.3623.50488.3623.85742c0,.43799-.18359.77148-.55176,1.00195-.18457.11523-.5957.17285-1.23242.17285l2.56738,5.22754Z"/><path class="cls-11" d="m93.33655,137.07227h-9.85645v-2.15332h9.85645v2.15332Z"/><path class="cls-11" d="m99.56604,127.75684v5.29688c.5752-.37598,1.16016-.6582,1.75586-.84619.59473-.18799,1.19531-.28223,1.80176-.28223,1.63477,0,3.02051.56396,4.15723,1.69238,1.13574,1.12842,1.7041,2.49121,1.7041,4.08789,0,1.52783-.54199,2.80371-1.62402,3.82861s-2.50977,1.53711-4.2832,1.53711c-.62988,0-1.23633-.08057-1.81934-.2417-.58398-.16113-1.14746-.39893-1.69238-.71387v.57568h-2.76367c-.56836,0-.97363-.10938-1.21484-.32812-.24219-.21875-.36328-.50488-.36328-.85791,0-.34521.12305-.62744.36914-.84619.24512-.21875.64844-.32812,1.20898-.32812h.40234v-10.21387h-.40234c-.56836,0-.97363-.10938-1.21484-.32812-.24219-.21875-.36328-.50439-.36328-.85791,0-.34521.12109-.62744.36328-.84619.24121-.21875.64648-.32812,1.21484-.32812h2.76367Zm7.05762,10.01758c0-.97461-.34082-1.7998-1.02441-2.47559-.68359-.67529-1.51953-1.01318-2.50977-1.01318-.9834,0-1.81543.33789-2.49902,1.01318-.68359.67578-1.02441,1.48975-1.02441,2.44141,0,.86719.30664,1.57959.9209,2.13574.61426.55664,1.48145.83496,2.60254.83496,1.12012,0,1.98926-.27832,2.60742-.83496.61816-.55615.92676-1.25684.92676-2.10156Z"/><path class="cls-11" d="m121.70862,132.23633v8.09473c.49805,0,.86719.11133,1.10547.33398.2373.22266.35645.50635.35645.85205,0,.34521-.12109.62744-.3623.84619-.24219.21875-.64746.32812-1.21484.32812h-2.24609v-.54102c-.6748.30713-1.32031.53711-1.93359.69092-.61426.15332-1.19824.22998-1.75098.22998-.77539,0-1.44727-.16309-2.01465-.48926-.56836-.32617-1.01758-.77734-1.34766-1.35303-.2373-.41455-.35645-.93262-.35645-1.5542v-5.07812h-.40332c-.56836,0-.97266-.10938-1.21484-.32812-.24121-.21875-.3623-.50488-.3623-.85791,0-.3457.12109-.62744.3623-.84619.24219-.21875.64648-.32812,1.21484-.32812h2.76367v7.02393c0,.49902.12109.86523.3623,1.09961.24219.23389.6123.35107,1.11133.35107.47559,0,.98828-.09375,1.53711-.28223.54883-.18799,1.22656-.52783,2.03223-1.01904v-4.81299h-.85156c-.56836,0-.97266-.10938-1.21484-.32812s-.3623-.50488-.3623-.85791c0-.3457.12012-.62744.3623-.84619s.64648-.32812,1.21484-.32812h3.21289Z"/><path class="cls-11" d="m130.26331,134.59668v4.73242c0,.50684.10352.84082.31055,1.00195.32324.25293.89844.37988,1.72754.37988,1.20508,0,2.31836-.25732,3.33984-.77148.39062-.19971.69824-.29932.9209-.29932.30664,0,.57324.11523.7998.34521.22656.23047.33984.51074.33984.84082,0,.30713-.12305.57178-.36816.79443-.37598.36084-1.11914.69287-2.22852.99609s-2.04395.45459-2.80371.45459c-1.46582,0-2.56543-.31641-3.29883-.94971s-1.09961-1.41064-1.09961-2.33203v-5.19287h-.85254c-.56738,0-.97266-.10938-1.21484-.32812-.24121-.21875-.3623-.50488-.3623-.85791,0-.3457.12109-.62744.3623-.84619.24219-.21875.64746-.32812,1.21484-.32812h.85254v-2.13037c0-.56787.10938-.97314.32812-1.21484s.50488-.36279.85742-.36279c.3457,0,.62793.12109.84668.36279s.32812.64697.32812,1.21484v2.13037h4.36426c.56836,0,.97266.10938,1.21484.32812.24121.21875.3623.50488.3623.85742,0,.3457-.12109.62793-.3623.84668-.24219.21875-.64648.32812-1.21484.32812h-4.36426Z"/><path class="cls-11" d="m144.41467,134.59668v4.73242c0,.50684.10352.84082.31055,1.00195.32324.25293.89844.37988,1.72754.37988,1.20508,0,2.31836-.25732,3.33984-.77148.39062-.19971.69824-.29932.9209-.29932.30664,0,.57324.11523.7998.34521.22656.23047.33984.51074.33984.84082,0,.30713-.12305.57178-.36816.79443-.37598.36084-1.11914.69287-2.22852.99609s-2.04395.45459-2.80371.45459c-1.46582,0-2.56543-.31641-3.29883-.94971s-1.09961-1.41064-1.09961-2.33203v-5.19287h-.85254c-.56738,0-.97266-.10938-1.21484-.32812-.24121-.21875-.3623-.50488-.3623-.85791,0-.3457.12109-.62744.3623-.84619.24219-.21875.64746-.32812,1.21484-.32812h.85254v-2.13037c0-.56787.10938-.97314.32812-1.21484s.50488-.36279.85742-.36279c.3457,0,.62793.12109.84668.36279s.32812.64697.32812,1.21484v2.13037h4.36426c.56836,0,.97266.10938,1.21484.32812.24121.21875.3623.50488.3623.85742,0,.3457-.12109.62793-.3623.84668-.24219.21875-.64648.32812-1.21484.32812h-4.36426Z"/><path class="cls-11" d="m165.27893,137.65967c0,.90576-.25098,1.78271-.75391,2.63086s-1.25098,1.52393-2.24512,2.02686c-.99414.50244-2.03223.75391-3.11523.75391-1.07422,0-2.10352-.24756-3.08594-.74268s-1.73047-1.16846-2.24512-2.02051c-.51465-.85254-.77148-1.74268-.77148-2.67188,0-.94385.26074-1.87109.7832-2.78076.52148-.90967,1.27246-1.625,2.25098-2.14746.97852-.52197,2.00195-.78271,3.06836-.78271,1.0752,0,2.10938.2666,3.10352.80029s1.74414,1.25098,2.25098,2.15332c.50684.90186.75977,1.82861.75977,2.78076Zm-2.36035.01123c0-.75977-.27246-1.4585-.81738-2.0957-.74512-.85938-1.72363-1.28955-2.93652-1.28955-1.06641,0-1.95703.3418-2.6709,1.0249s-1.07129,1.47363-1.07129,2.37207c0,.73682.36133,1.42578,1.08301,2.06689.7207.64111,1.60742.96143,2.65918.96143,1.05957,0,1.9502-.32031,2.67188-.96143s1.08203-1.33398,1.08203-2.07861Z"/><path class="cls-11" d="m170.90979,132.23633v.79443c.42969-.36865.9043-.64502,1.42188-.8291.51855-.18457,1.08008-.27637,1.6875-.27637,1.39648,0,2.50195.43359,3.31543,1.30127.64551.69043.96777,1.59668.96777,2.71729v4.38721c.49902,0,.86719.10938,1.10547.32812.2373.21875.35645.50488.35645.85791,0,.34521-.12109.62744-.3623.84619-.24219.21875-.64746.32812-1.21484.32812h-2.12988c-.56836,0-.97363-.10938-1.21484-.32812-.24219-.21875-.36328-.50488-.36328-.85791,0-.34521.11914-.62744.35742-.84619.2373-.21875.60645-.32812,1.10547-.32812v-4.45654c0-.51416-.13867-.89014-.41504-1.12842-.36035-.30664-.90234-.46045-1.62305-.46045-.5459,0-1.02344.10547-1.43359.31689-.41113.21094-.93164.6582-1.56055,1.34131v4.38721c.60645,0,.99805.05762,1.1748.17236.37598.23047.56348.56836.56348,1.01367,0,.34521-.12012.62744-.3623.84619s-.64648.32812-1.21484.32812h-2.68262c-.56836,0-.97363-.10938-1.21484-.32812-.24219-.21875-.36328-.50488-.36328-.85791,0-.42969.18457-.76367.55273-1.00195.18457-.11475.58008-.17236,1.18652-.17236v-5.73438c-.49902,0-.86816-.11133-1.10547-.33398-.23828-.22266-.35742-.50684-.35742-.85205,0-.3457.12109-.62744.36328-.84619.24121-.21875.64648-.32812,1.21484-.32812h2.24512Z"/><path class="cls-1" d="m189.94299,135.9668l-7.64551-4.2373c-.38379-.21484-.63867-.40674-.76562-.57568s-.19043-.38379-.19043-.64502c0-.33008.11914-.61377.35742-.85205.23828-.23779.51855-.35693.84082-.35693.19922,0,.50684.11133.9209.33398l11.3877,6.33301-11.3877,6.33301c-.41406.23047-.72168.3457-.9209.3457-.32227,0-.60254-.11914-.84082-.35693s-.35742-.52588-.35742-.86377c0-.26074.06348-.47607.19043-.64502.12695-.16846.38184-.36035.76562-.57568l7.64551-4.2373Z"/><path class="cls-12" d="m160.62278,390.13789h341.54279v5H160.62278v-5Z"/><path class="cls-4" d="m160.62278,294.47052h341.54279v96.28423H160.62278v-96.28423Z"/><path class="cls-1" d="m192.71518,352.17125c.4949.5656,1.09585,1.12237,1.80285,1.67029s1.48912,1.03841,2.34636,1.47145,1.7896.7777,2.79708,1.03399,2.09449.38443,3.26105.38443c2.17403,0,3.8399-.45513,4.99762-1.3654s1.73657-2.01937,1.73657-3.32733c0-1.36098-.50816-2.39497-1.52447-3.10197s-2.62916-1.26377-4.83854-1.67029l-1.19307-.2121c-1.59075-.2828-3.17267-.65398-4.74575-1.11353s-2.99592-1.12237-4.26852-1.98844-2.30659-1.97519-3.10197-3.32733-1.19307-3.0622-1.19307-5.13018c0-1.2019.26513-2.46125.79538-3.77804s1.37423-2.52753,2.53195-3.63222,2.65126-2.01054,4.48062-2.71754,4.04317-1.0605,6.6414-1.0605c3.07546,0,5.81951.50816,8.23215,1.52447s4.36132,2.3552,5.84602,4.01665l-5.11692,4.77226c-1.04283-1.14888-2.38171-2.0503-4.01665-2.70428s-3.31849-.98096-5.05064-.98096c-1.99728,0-3.5571.38001-4.67947,1.14004s-1.68355,1.74983-1.68355,2.96941c0,.79538.18117,1.45819.54351,1.98844s.8705.96771,1.52447,1.31237,1.44052.63188,2.35962.86166,1.94425.45955,3.07546.68933l.60979.10605c1.52005.2828,3.03127.64072,4.53365,1.07376s2.86778,1.06934,4.09619,1.9089,2.22264,1.93542,2.98266,3.28756,1.14004,3.07988,1.14004,5.18321c0,1.9089-.39769,3.59687-1.19307,5.0639s-1.84704,2.71754-3.155,3.75153-2.81917,1.81169-4.53365,2.33311-3.49966.78212-5.35554.78212c-1.87355,0-3.61013-.15908-5.20972-.47723s-3.04894-.76886-4.34806-1.35214-2.45683-1.23725-3.47315-1.96193-1.90449-1.50238-2.66451-2.33311l5.01087-5.09041Z"/><path class="cls-1" d="m233.80965,354.39831c0,.33583.04419.65398.13256.95445s.24303.56118.46397.78212.53467.39327.9412.517.92794.18559,1.56424.18559c.26513,0,.5656-.01326.90143-.03977s.67165-.05744,1.00748-.09279.64956-.07954.9412-.13256l.7291-.13256.66281,6.46907c-.68933.08838-1.40517.16791-2.14752.23861-.6363.0707-1.3433.12814-2.12101.17233s-1.56424.06628-2.35962.06628c-2.52753,0-4.4983-.57444-5.9123-1.72332s-2.12101-2.97824-2.12101-5.4881v-15.35077h-5.11692v-6.36302h5.11692v-8.03331l7.31747-1.96193v9.99524h7.45003v6.36302h-7.45003v13.57443Z"/><path class="cls-1" d="m261.67436,360.17805c-.30048.33583-.66723.69375-1.10027,1.07376s-.94561.72468-1.53773,1.03399-1.28586.57002-2.08124.78212-1.68797.31815-2.67777.31815c-1.414,0-2.71754-.22536-3.9106-.67607s-2.24031-1.0826-3.14174-1.89565-1.60843-1.75425-2.12101-2.82359-.76886-2.23147-.76886-3.4864c0-2.28008.707-4.1448,2.12101-5.59415s3.3671-2.35962,5.85928-2.73079l8.16587-1.19307v-.53025c0-1.2726-.38885-2.28008-1.16655-3.02243s-2.04147-1.11353-3.7913-1.11353c-.72468,0-1.45819.08396-2.20054.25187s-1.45377.35792-2.13426.57002-1.31237.45513-1.89565.7291-1.09585.517-1.53773.7291l-2.86336-5.59415c1.6261-.90143,3.43338-1.64378,5.42182-2.22706s4.052-.87491,6.19068-.87491c1.30795,0,2.62916.13698,3.96363.41094s2.54521.77328,3.63222,1.49796,1.97519,1.71006,2.66451,2.95615,1.03399,2.83243,1.03399,4.75901v11.66553c0,.83073.21652,1.44493.64956,1.84262s1.02957.76445,1.7896,1.10027l-3.31407,5.24949c-1.3433-.1414-2.42148-.49048-3.23453-1.04725s-1.4847-1.27702-2.01495-2.16077Zm-6.64582-8.8552c-.90437.1414-1.63052.45513-2.17992.9412-.55087.48606-.82484,1.14446-.82484,1.97519,0,.9191.3373,1.71006,1.01042,2.37287s1.66587.99422,2.97824.99422c1.38307,0,2.47451-.39769,3.27136-1.19307.79832-.79538,1.19748-1.84704,1.19748-3.155v-2.86336l-5.45275.92794Z"/><path class="cls-1" d="m289.85721,341.56622h-.76886c-1.04283,0-2.03705.10605-2.98266.31815s-1.78076.59653-2.50544,1.1533-1.30353,1.32121-1.73657,2.29334-.64956,2.21822-.64956,3.73827v13.78653h-7.31747v-28.39496h7.31747v3.20802c.30048-.47723.68933-.93678,1.16655-1.37865s1.03399-.83515,1.67029-1.17981,1.35214-.62305,2.14752-.83515,1.65262-.31815,2.57172-.31815h1.08702v7.60911Z"/><path class="cls-1" d="m304.88984,354.39831c0,.33583.04419.65398.13256.95445s.24303.56118.46397.78212.53467.39327.9412.517.92794.18559,1.56424.18559c.26513,0,.5656-.01326.90143-.03977s.67165-.05744,1.00748-.09279.64956-.07954.9412-.13256l.7291-.13256.66281,6.46907c-.68933.08838-1.40517.16791-2.14752.23861-.6363.0707-1.3433.12814-2.12101.17233s-1.56424.06628-2.35962.06628c-2.52753,0-4.4983-.57444-5.9123-1.72332s-2.12101-2.97824-2.12101-5.4881v-15.35077h-5.11692v-6.36302h5.11692v-8.03331l7.31747-1.96193v9.99524h7.45003v6.36302h-7.45003v13.57443Z"/><path class="cls-1" d="m326.73619,334.46086h7.31747v2.43916c.38885-.38885.82631-.76445,1.31237-1.12678s1.02073-.68049,1.60401-.95445,1.23283-.4949,1.94867-.66281,1.5068-.25187,2.37287-.25187c1.53773,0,2.91638.25187,4.13596.75561s2.24915,1.19748,3.08871,2.08124,1.48028,1.91774,1.92216,3.10197.66281,2.46567.66281,3.84432v19.16858h-7.31747v-16.51733c0-1.00748-.11489-1.8603-.34466-2.55846s-.54351-1.26377-.9412-1.6968-.86608-.75119-1.40517-.95445-1.12678-.30489-1.76309-.30489c-.74235,0-1.4361.13256-2.08124.39769s-1.20632.66723-1.68355,1.20632-.8484,1.21516-1.11353,2.02821-.39769,1.7675-.39769,2.86336v15.53636h-7.31747v-28.39496Z"/><path class="cls-1" d="m369.68655,333.90409c2.10333,0,4.01223.37559,5.72671,1.12678s3.18151,1.7896,4.40109,3.11523,2.16077,2.88987,2.82359,4.69272.99422,3.74711.99422,5.83276c0,2.10333-.33583,4.052-1.00748,5.84602s-1.61727,3.345-2.83684,4.65296-2.68661,2.33752-4.40109,3.08871-3.61455,1.12678-5.7002,1.12678c-2.10333,0-4.01223-.37559-5.72671-1.12678s-3.18151-1.78076-4.40109-3.08871-2.16519-2.85894-2.83684-4.65296-1.00748-3.74269-1.00748-5.84602c0-2.08566.33141-4.02991.99422-5.83276s1.60401-3.3671,2.82359-4.69272,2.69103-2.36404,4.41434-3.11523,3.63664-1.12678,5.73997-1.12678Zm0,22.69476c1.04283,0,1.96635-.19443,2.77056-.58328s1.48028-.92794,2.02821-1.61727.96329-1.51563,1.24609-2.47892.4242-2.01937.4242-3.16825v-.18559c0-1.14888-.1414-2.20496-.4242-3.16825s-.69816-1.79402-1.24609-2.49218-1.224-1.24167-2.02821-1.63052-1.72774-.58328-2.77056-.58328-1.96635.19443-2.77056.58328-1.48028.93236-2.02821,1.63052-.96329,1.52889-1.24609,2.49218-.4242,2.01937-.4242,3.16825v.18559c0,1.14888.1414,2.20496.4242,3.16825s.69816,1.7896,1.24609,2.47892,1.224,1.22842,2.02821,1.61727,1.72774.58328,2.77056.58328Z"/><path class="cls-1" d="m414.22765,353.57642l3.47315-19.11556h7.74167l-6.5486,28.39496h-8.69612l-4.24201-18.45274-4.50714,18.45274h-8.56356l-6.57512-28.39496h7.98028l3.3671,19.11556,4.93134-19.11556h6.99932l4.6397,19.11556Z"/><polygon class="cls-1" points="453.0454 364.89058 446.09033 364.89058 439.13526 364.89058 460.00047 344.33329 439.13526 322.50814 446.09033 322.50814 453.0454 322.50814 473.9106 344.33329 453.0454 364.89058"/><path class="cls-8" d="m580.99941,433.49582h28.63532v10.10658h-28.63532v-10.10658Zm0-62.54853h28.63532v10.10658h-28.63532v-10.10658Z"/><circle class="cls-1" cx="540.79764" cy="438.54911" r="22.45908"/><path class="cls-9" d="m540.79764,420.58185c9.88198,0,17.96726,8.08526,17.96726,17.96726s-8.08528,17.96726-17.96726,17.96726-17.96726-8.08526-17.96726-17.96726,8.08526-17.96726,17.96726-17.96726m0-4.49182c-12.35249,0-22.45908,10.10658-22.45908,22.45908s10.10658,22.45908,22.45908,22.45908,22.45908-10.10658,22.45908-22.45908-10.10658-22.45908-22.45908-22.45908Z"/><path class="cls-7" d="m540.79764,416.09003c12.35249,0,22.45908,10.10658,22.45908,22.45908s-10.10658,22.45908-22.45908,22.45908-22.45908-10.10658-22.45908-22.45908,10.10658-22.45908,22.45908-22.45908m0-4.49182c-14.93529,0-26.95089,12.0156-26.95089,26.95089s12.0156,26.95089,26.95089,26.95089,26.95089-12.0156,26.95089-26.95089c0-14.82299-12.01562-26.95089-26.95089-26.95089Z"/><circle class="cls-9" cx="540.79764" cy="438.54911" r="11.22954"/><path class="cls-1" d="m519.46152,355.67512h40.42634v40.42634h-40.42634v-40.42634Z"/><path class="cls-9" d="m557.64195,357.92102v35.93452h-35.93452v-35.93452h35.93452m4.49182-4.49182h-44.91815v44.91815h44.91815v-44.91815Z"/><path class="cls-9" d="m553.59931,368.81367l-3.93034-3.93034-14.26151,14.26151-5.61477-5.61477-3.93034,4.04263,9.54511,9.54511,18.19185-18.30414"/><path class="cls-7" d="m562.13377,353.42921v44.91815h-44.91815v-44.91815h44.91815m3.36886-3.36886h-51.65587v51.65587h51.65587v-51.65587Z"/><path class="cls-1" d="m37.63253,22.2502h-9.60503l-1.98504,3.42833-1.98473-3.42833h-9.60473l.34707.60212h.00053l.00008.00015,11.24178,19.47149,11.24178-19.47164h.00053l.34775-.60212Zm-11.59006,12.04402l-6.60993-11.4419h4.28266l2.32727,4.03317,2.32818-4.03317h4.27828l-6.60645,11.4419Z"/><path class="cls-1" d="m43.86292,36.97998v-2.03369c.18164.16602.39844.31543.65039.44824s.51953.24512.80078.33594c.2832.0918.56445.16211.84766.21191.28125.0498.54102.07471.7793.07471.83008,0,1.44922-.13818,1.85547-.41504s.61133-.67773.61133-1.20361c0-.28223-.06836-.52734-.20508-.73438-.13477-.20801-.32422-.39746-.56836-.56885-.24219-.17139-.5293-.33643-.85938-.49365-.32812-.1582-.68164-.32275-1.05664-.49414-.4043-.21582-.78125-.43457-1.12891-.65576-.34961-.22119-.65234-.46631-.91016-.73486-.25781-.26807-.45898-.57129-.60547-.90869s-.2207-.7334-.2207-1.18701c0-.55908.12695-1.04443.37891-1.45703.25195-.41211.58398-.75244.99609-1.02051.41211-.26855.88086-.46777,1.40625-.59766.52539-.13037,1.0625-.19531,1.61133-.19531,1.24414,0,2.15234.14111,2.72266.42334v1.95068c-.67578-.48682-1.54492-.73047-2.60742-.73047-.29297,0-.58594.02783-.875.08301-.29102.05518-.55078.14648-.78125.27393-.22852.12744-.41602.29053-.56055.48975-.14258.19922-.21484.43994-.21484.72217,0,.26562.05469.49512.16602.68896.10938.19385.27148.37061.48438.53125s.47461.31689.78125.46875c.30664.15234.66211.31689,1.06641.49414.41602.21582.80664.44287,1.17383.68066.36914.23779.69336.50098.97266.78857s.5.60742.66406.9585c.16211.35156.24414.75146.24414,1.19971,0,.60303-.12109,1.1123-.36523,1.52734s-.57227.75244-.98438,1.0127-.88672.44824-1.42188.56445c-.53711.11621-1.10547.17432-1.70312.17432-.19922,0-.44336-.01514-.73438-.0459-.29102-.03027-.58789-.07422-.89258-.13281-.30469-.05762-.5918-.12842-.86328-.21143s-.48828-.17725-.6543-.28223Z"/><path class="cls-1" d="m57.44299,37.36182c-.37695.18799-.87305.28223-1.48633.28223-1.65039,0-2.47461-.7915-2.47461-2.37402v-4.80615h-1.41797v-1.51074h1.41797v-1.96729l1.92578-.54785v2.51514h2.03516v1.51074h-2.03516v4.25c0,.50342.0918.86328.27539,1.0791.18164.21582.48633.32373.91211.32373.32617,0,.60938-.09424.84766-.28223v1.52734Z"/><path class="cls-1" d="m65.62659,37.45312h-1.86719v-1.32812h-.0332c-.58789,1.01807-1.44727,1.52734-2.58203,1.52734-.83594,0-1.49023-.22705-1.96289-.68066s-.70898-1.0542-.70898-1.80127c0-1.60498.92383-2.54004,2.77148-2.80566l2.52344-.35693c0-1.21191-.57617-1.81787-1.72656-1.81787-1.01172,0-1.92578.34863-2.73828,1.0459v-1.68506c.89648-.53125,1.92969-.79688,3.10352-.79688,2.14648,0,3.2207,1.05713,3.2207,3.1709v5.52832Zm-1.85938-4.17529l-1.78516.24902c-.55273.07178-.96875.20605-1.24805.40283-.2793.19629-.41992.54053-.41992,1.0332,0,.35986.12891.6543.38672.88379.25586.22998.60156.34473,1.0332.34473.58594,0,1.07227-.20605,1.45703-.61816.38477-.4126.57617-.93115.57617-1.55664v-.73877Z"/><path class="cls-1" d="m72.90588,30.7876c-.23242-.18262-.56641-.27393-1.00391-.27393-.57031,0-1.04688.25732-1.42773.77197-.38281.51465-.57227,1.21484-.57227,2.1001v4.06738h-1.92578v-8.5h1.92578v1.75146h.0332c.1875-.59766.47656-1.06396.86719-1.39893.38867-.33447.82617-.50195,1.30664-.50195.34961,0,.61523.05273.79688.15771v1.82617Z"/><path class="cls-1" d="m79.23987,37.36182c-.37695.18799-.87109.28223-1.48633.28223-1.64844,0-2.47266-.7915-2.47266-2.37402v-4.80615h-1.41992v-1.51074h1.41992v-1.96729l1.92578-.54785v2.51514h2.0332v1.51074h-2.0332v4.25c0,.50342.08984.86328.27344,1.0791.18164.21582.48633.32373.91211.32373.32812,0,.60938-.09424.84766-.28223v1.52734Z"/><path class="cls-1" d="m83.08362,33.13672v4.31641h-1.96875v-11.90332h3.61133c1.36719,0,2.42773.31836,3.17969.95459s1.12891,1.53271,1.12891,2.68945-.39258,2.10303-1.17969,2.83887c-.78516.73584-1.84766,1.104-3.1875,1.104h-1.58398Zm0-5.95996v4.34961h1.27734c.84766,0,1.49219-.19629,1.93359-.58936.44336-.39307.66406-.94629.66406-1.66016,0-1.3999-.8125-2.1001-2.43945-2.1001h-1.43555Z"/><path class="cls-1" d="m96.87073,37.45312h-1.86719v-1.32812h-.0332c-.58789,1.01807-1.44727,1.52734-2.58203,1.52734-.83594,0-1.49023-.22705-1.96289-.68066s-.70898-1.0542-.70898-1.80127c0-1.60498.92383-2.54004,2.77148-2.80566l2.52344-.35693c0-1.21191-.57617-1.81787-1.72656-1.81787-1.01172,0-1.92578.34863-2.73828,1.0459v-1.68506c.89648-.53125,1.92969-.79688,3.10352-.79688,2.14648,0,3.2207,1.05713,3.2207,3.1709v5.52832Zm-1.85938-4.17529l-1.78516.24902c-.55273.07178-.96875.20605-1.24805.40283-.2793.19629-.41992.54053-.41992,1.0332,0,.35986.12891.6543.38672.88379.25586.22998.60156.34473,1.0332.34473.58594,0,1.07227-.20605,1.45703-.61816.38477-.4126.57617-.93115.57617-1.55664v-.73877Z"/><path class="cls-1" d="m106.95667,36.77246c0,3.12109-1.57031,4.68164-4.70703,4.68164-1.10742,0-2.07227-.18555-2.89648-.55615v-1.75977c.92969.53125,1.81055.79688,2.64648.79688,2.01953,0,3.03125-.99316,3.03125-2.97998v-.92969h-.0332c-.63672,1.08447-1.59375,1.62695-2.87305,1.62695-1.03516,0-1.86914-.37793-2.50195-1.13281-.63477-.75586-.95117-1.76953-.95117-3.04248,0-1.44434.33984-2.59277,1.02148-3.44482.67969-.85205,1.61523-1.27832,2.80469-1.27832,1.12305,0,1.95703.45947,2.5,1.37793h.0332v-1.17871h1.92578v7.81934Zm-1.91016-3.2124v-1.104c0-.59766-.19727-1.1084-.59375-1.53125-.39453-.42383-.88867-.63525-1.48047-.63525-.73047,0-1.30273.27002-1.71484.80908-.41211.54004-.61914,1.29395-.61914,2.26221,0,.83545.19922,1.50391.59375,2.00439.39648.50098.91992.75146,1.57422.75146.66406,0,1.20312-.23926,1.61719-.71826.41602-.47852.62305-1.09131.62305-1.83838Z"/><path class="cls-1" d="m116.65979,33.72607h-5.79297c.02148.78564.26367,1.3916.72656,1.81787.46094.42627,1.0957.63916,1.9043.63916.9082,0,1.74023-.271,2.49805-.81348v1.55225c-.77344.48682-1.79883.73047-3.07031.73047-1.25195,0-2.23242-.38574-2.94336-1.1582-.71094-.77148-1.06641-1.85791-1.06641-3.25781,0-1.32275.39062-2.40039,1.17383-3.2334.7832-.83252,1.75586-1.24902,2.91797-1.24902s2.0625.37354,2.69922,1.12061c.63477.74707.95312,1.78467.95312,3.11279v.73877Zm-1.85938-1.36133c-.00586-.69189-.16797-1.22998-.48828-1.61475-.32227-.38428-.76367-.57666-1.32812-.57666-.55469,0-1.02344.20215-1.4082.60596s-.62109.93262-.70898,1.58545h3.93359Z"/><path class="cls-1" d="m119.2926,37.63574c-.33203,0-.61523-.10938-.84766-.32812-.23242-.21826-.34766-.47998-.34766-.78418,0-.31006.11523-.57568.34766-.79688s.51562-.33203.84766-.33203c.33594,0,.62305.11084.85742.33203.23633.22119.35352.48682.35352.79688,0,.3042-.11719.56592-.35352.78418-.23438.21875-.52148.32812-.85742.32812Z"/><path class="cls-1" d="m129.91565,28.95312l-3.28711,8.5h-2.08398l-3.12891-8.5h2.0918l1.88477,5.94336c.14258.43701.23242.81885.26562,1.14551h.02539c.04883-.40967.12695-.78027.23242-1.1123l1.97461-5.97656h2.02539Z"/><path class="cls-1" d="m138.63245,37.45312h-1.92578v-1.34473h-.0332c-.55859,1.0293-1.42773,1.54395-2.60742,1.54395-2.00781,0-3.01172-1.20654-3.01172-3.61914v-5.08008h1.92578v4.88086c0,1.52734.58789,2.29102,1.76758,2.29102.57031,0,1.03906-.21045,1.40625-.63086.36914-.42041.55273-.97119.55273-1.65186v-4.88916h1.92578v8.5Z"/><path class="cls-1" d="m148.33557,33.72607h-5.79297c.02148.78564.26367,1.3916.72656,1.81787.46094.42627,1.0957.63916,1.9043.63916.9082,0,1.74023-.271,2.49805-.81348v1.55225c-.77344.48682-1.79883.73047-3.07031.73047-1.25195,0-2.23242-.38574-2.94336-1.1582-.71094-.77148-1.06641-1.85791-1.06641-3.25781,0-1.32275.39062-2.40039,1.17383-3.2334.7832-.83252,1.75586-1.24902,2.91797-1.24902s2.0625.37354,2.69922,1.12061c.63477.74707.95312,1.78467.95312,3.11279v.73877Zm-1.85938-1.36133c-.00586-.69189-.16797-1.22998-.48828-1.61475-.32227-.38428-.76367-.57666-1.32812-.57666-.55469,0-1.02344.20215-1.4082.60596s-.62109.93262-.70898,1.58545h3.93359Z"/></svg>